{"title":"Splice.2010.CAM.XVID-PrisM","uid":5626469,"size":789536943,"categoryP":"video","categoryS":"movies","magnet":"?xt=urn:btih:b0b37f8a7946205df06733439a9fa024c793e116&amp;dn=Splice.2010.CAM.XVID-PrisM&amp;tr=udp%3A%2F%2Ftracker.openbittorrent.com%3A80&amp;tr=udp%3A%2F%2Fopen.demonii.com%3A1337&amp;tr=udp%3A%2F%2Ftracker.coppersurfer.tk%3A6969&amp;tr=udp%3A%2F%2Fexodus.desync.com%3A6969","seeders":1,"leechers":0,"uploader":"hiest","files":57,"time":1276496390,"description":" \nElsa and Clive, two young rebellious scientists, defy legal and ethical boundaries and forge ahead with a dangerous experiment: splicing together human and animal DNA to create a new organism. Named &quot;Dren&quot;, the creature rapidly develops from a deformed female infant into a beautiful but dangerous winged human-chimera, who forges a bond with both of her creators - only to have that bond turn deadly.\n\n \nMOVIEmeter: Up 200% in popularity this week &lt;a href=&quot;\nhttp://www.imdb.com/title/tt1017460/&quot; rel=&quot;nofollow&quot; target=&quot;_NEW&quot;&gt;\nhttp://www.imdb.com/title/tt1017460/&lt;/a&gt;\nGenre:Horror | Sci-Fi | Thriller \nDirector:Vincenzo Natali\n\n \nVideo\nID : 0\nFormat : MPEG-4 Visual\nFormat profile : Advanced Simple@L5\nFormat settings, BVOP : Yes\nFormat settings, QPel : No\nFormat settings, GMC : No warppoints\nFormat settings, Matrix : Default (H.263)\nMuxing mode : Packed bitstream\nCodec ID : XVID\nCodec ID/Hint : XviD\nDuration : 1h 39mn\nBit rate : 843 Kbps\nWidth : 640 pixels\nHeight : 336 pixels\nDisplay aspect ratio : 1.905\nFrame rate : 23.976 fps\nResolution : 8 bits\nColorimetry : 4:2:0\nScan type : Progressive\nBits/(Pixel*Frame) : 0.164\nStream size : 602 MiB (81%)\nWriting library : XviD 1.2.1 (UTC 2008-12-04)\n\nAudio\nID : 1\nFormat : AC-3\nFormat/Info : Audio Coding 3\nCodec ID : 2000\nDuration : 1h 39mn\nBit rate mode : Constant\nBit rate : 192 Kbps\nChannel(s) : 2 channels\nChannel positions : L R\nSampling rate : 48.0 KHz\nStream size : 137 MiB (18%)\nAlignment : Split accross interleaves\nInterleave, duration : 42 ms (1.00 video frame)\nInterleave, preload duration : 500 ms\n\n\nScreenshots\n &lt;a href=&quot;\nhttp://postimg.com/image/17000/16225.jpg&quot; rel=&quot;nofollow&quot; target=&quot;_NEW&quot;&gt;\nhttp://postimg.com/image/17000/16225.jpg&lt;/a&gt;","torrent":{"xt":"urn:btih:b0b37f8a7946205df06733439a9fa024c793e116","amp;dn":"Splice.2010.CAM.XVID-PrisM","amp;tr":["udp%3A%2F%2Ftracker.openbittorrent.com%3A80","udp%3A%2F%2Fopen.demonii.com%3A1337","udp%3A%2F%2Ftracker.coppersurfer.tk%3A6969","udp%3A%2F%2Fexodus.desync.com%3A6969"],"infoHash":"b0b37f8a7946205df06733439a9fa024c793e116","infoHashBuffer":{"type":"Buffer","data":[176,179,127,138,121,70,32,93,240,103,51,67,154,159,160,36,199,147,225,22]},"announce":[],"urlList":[]}}